<svg id="logo_nv" data-name="logo_nv" xmlns="http://www.w3.org/2000/svg" xmlns:xlink="http://www.w3.org/1999/xlink" viewBox="0 0 1221.53 169.33"><defs><style>.cls-1{fill:#cfba79;}.cls-2{fill:#353535;}</style></defs><title>monpotpourri-Logo-SVG</title><path class="cls-1" d="M216.24,217.75a5.18,5.18,0,0,1-4.53-2.34L101.87,62.62a5.24,5.24,0,0,1-1-3.42c0-3.6,2-5.75,5.44-5.75a5.55,5.55,0,0,1,4.28,2.32L210.69,194.7V58.2a5.55,5.55,0,0,1,11.1,0L222,212C222,215.6,219.84,217.75,216.24,217.75Zm-24.4,0a5.18,5.18,0,0,1-4.53-2.34l-75.52-106V212a5.66,5.66,0,0,1-1.69,4,5.43,5.43,0,0,1-4,1.78c-3.54,0-5.65-2.15-5.65-5.75V91.4a5.38,5.38,0,0,1,1.68-3.77,5.19,5.19,0,0,1,3.77-1.78,5.72,5.72,0,0,1,4.47,2.32l0.07,0.09c1,1.41,2.9,4.07,5.84,8.14s6.53,9,10.79,14.89,8.93,12.36,14,19.52c4.9,6.9,10.08,14.13,15.39,21.48,5,6.91,10.08,14,15.11,21.12q7.3,10.31,13,18.41c3.77,5.36,6.84,9.82,9.14,13.25,3.67,5.5,3.83,6.19,3.83,7.12a5.28,5.28,0,0,1-1.84,4A5.8,5.8,0,0,1,191.84,217.75Z" transform="translate(-100.49 -52.65)"/><path class="cls-2" d="M459.56,222a80.8,80.8,0,0,1-32.21-6.51,82.43,82.43,0,0,1-43.83-43.83,83,83,0,0,1,0-64.42,82.42,82.42,0,0,1,43.83-43.83,80.78,80.78,0,0,1,32.21-6.51A86,86,0,0,1,488.72,62a73.11,73.11,0,0,1,25.59,15.75,5.8,5.8,0,0,1,2,4.05A6.18,6.18,0,0,1,514.64,86,5.67,5.67,0,0,1,510.36,88a5.26,5.26,0,0,1-3.69-1.63,86.07,86.07,0,0,0-21.89-13.46,65.48,65.48,0,0,0-25.22-4.7A69,69,0,0,0,432,73.77a72.34,72.34,0,0,0-38.07,38.07,70.85,70.85,0,0,0,0,55.17A72.34,72.34,0,0,0,432,205.09a70,70,0,0,0,52.18,1.06A78,78,0,0,0,505,194.21l0.18-38.63H431.56a5.49,5.49,0,0,1-4.2-1.85,6,6,0,0,1-1.55-4.1,5.72,5.72,0,0,1,1.55-3.9,5.51,5.51,0,0,1,4.2-1.85h79.2c3.6,0,5.75,2.22,5.75,6l-0.2,47a5.82,5.82,0,0,1-1.75,4.19,73,73,0,0,1-25.75,15.8A86.8,86.8,0,0,1,459.56,222ZM432,135.78c-3.6,0-5.75-2.15-5.75-5.75a5.25,5.25,0,0,1,2-4.19,6,6,0,0,1,3.8-1.36h78a5.62,5.62,0,0,1,5.55,5.55,6,6,0,0,1-1.36,3.79,5.17,5.17,0,0,1-4.19,2H432Z" transform="translate(-100.49 -52.65)"/><path class="cls-2" d="M657,222a5.29,5.29,0,0,1-5.41-3.72L595.78,77.61l-3.85,9.92c0.65,1.44,1.63,3.78,3,7.13q2.6,6.4,6.4,15.69c2.54,6.21,5.3,13.16,8.22,20.64s6,15.3,9,22.88q4.6,11.61,8.9,22.61T635,196.11q3.3,8.61,5.3,13.91c2.16,5.75,2.16,5.82,2.16,6.4a5.15,5.15,0,0,1-3.82,5.24l-0.36.11H638.1a4.11,4.11,0,0,1-1.34.2,5.32,5.32,0,0,1-5.17-3.61L586,103.24l-44.25,115.1a5.49,5.49,0,0,1-5.38,3.64,3.68,3.68,0,0,1-1.28-.2H535l-0.38-.1a5.28,5.28,0,0,1-3.83-5.45c0-.58,0-0.66,2.56-7.49q2.41-6.41,6.31-16.62t9-23.41q5.1-13.2,10.4-27.09c3.48-9.12,7-18.38,10.61-27.52s6.73-17.36,9.59-24.88,5.28-13.82,7.31-19c2-5,3.24-8.36,3.78-9.85l0.06-.16a5.48,5.48,0,0,1,5.33-3.32A5.14,5.14,0,0,1,601,60.42c0.5,1.38,1.83,4.76,3.85,9.75s4.56,11.45,7.51,19,6.26,15.92,9.89,24.87,7.38,18.35,11,27.52c3.57,9,7.2,18.13,10.8,27.09s6.67,16.73,9.31,23.53,4.83,12.43,6.5,16.69c2.67,6.85,2.67,6.92,2.67,7.53A5.62,5.62,0,0,1,657,222Z" transform="translate(-100.49 -52.65)"/><path class="cls-2" d="M695.34,222a5.19,5.19,0,0,1-5.53-5.55v-153a5.39,5.39,0,0,1,1.7-3.93,5.62,5.62,0,0,1,7.89,0,5.39,5.39,0,0,1,1.71,3.93V210.68h8.1V62.62a5.64,5.64,0,0,1,1.69-4,5.42,5.42,0,0,1,4-1.77c3.54,0,5.65,2.15,5.65,5.75V210.68h69.65c3.6,0,5.75,2.11,5.75,5.65s-2.15,5.65-5.75,5.65H695.34Z" transform="translate(-100.49 -52.65)"/><path class="cls-2" d="M822.93,222a5.19,5.19,0,0,1-5.53-5.55v-153a5.39,5.39,0,0,1,1.7-3.93,5.62,5.62,0,0,1,7.89,0,5.39,5.39,0,0,1,1.71,3.93V210.68h8.1V62.62a5.64,5.64,0,0,1,1.69-4,5.42,5.42,0,0,1,4-1.77c3.54,0,5.65,2.15,5.65,5.75V210.68h69.65c3.6,0,5.75,2.11,5.75,5.65s-2.15,5.65-5.75,5.65H822.93Z" transform="translate(-100.49 -52.65)"/><path class="cls-2" d="M952.06,222a5.63,5.63,0,0,1-4.25-1.82A6,6,0,0,1,946.2,216V62.43a5.15,5.15,0,0,1,2-4.21,6.16,6.16,0,0,1,3.84-1.34h98.09a5.38,5.38,0,0,1,3.93,1.7,5.62,5.62,0,0,1,0,7.89,5.38,5.38,0,0,1-3.93,1.7H957.5v56.7h71.65a5.38,5.38,0,0,1,3.93,1.7,5.62,5.62,0,0,1,0,7.89,5.38,5.38,0,0,1-3.93,1.7H957.87l-0.13,8.7H1030c3.6,0,5.75,2.11,5.75,5.65a5.42,5.42,0,0,1-1.78,4,5.65,5.65,0,0,1-4,1.69H957.5v53.9h92.65a5.25,5.25,0,0,1,4.07,2,6.1,6.1,0,0,1,1.48,3.92,6.36,6.36,0,0,1-1.29,3.8,5.08,5.08,0,0,1-4.26,2.15H952.06Z" transform="translate(-100.49 -52.65)"/><path class="cls-2" d="M1171.15,222a5.34,5.34,0,0,1-5.13-3.32L1136.32,154h-31v61.45a5.25,5.25,0,0,1-2,4.19,6,6,0,0,1-3.79,1.36,5.62,5.62,0,0,1-5.55-5.55V68.18h-7.9V216.43a5.24,5.24,0,0,1-2,4.19,6,6,0,0,1-3.79,1.35,5.63,5.63,0,0,1-5.55-5.55v-154a5.2,5.2,0,0,1,5.55-5.55h58a39.83,39.83,0,0,1,15.17,2.89A37.6,37.6,0,0,1,1177.1,95a39.72,39.72,0,0,1-2.57,14.21,38.14,38.14,0,0,1-17.87,20.43,40.86,40.86,0,0,1-13.7,4.48,13.15,13.15,0,0,1-2.51.23h-34.39l-0.12,8.3h34a5.63,5.63,0,0,1,5,3.11l0.06,0.1,0.08,0.18q0.6,1.61,3.15,7.09t6.1,13.21q3.5,7.6,7.4,16T1169,198q3.3,7.21,5.51,12.12c2.42,5.41,2.42,5.94,2.42,6.55a4.89,4.89,0,0,1-2.09,4.19A6.27,6.27,0,0,1,1171.15,222Zm-32.8-98.9A26.64,26.64,0,0,0,1149,120.9a27.7,27.7,0,0,0,8.79-6,27.75,27.75,0,0,0,8-19.74,25.65,25.65,0,0,0-2.18-10.52,27.61,27.61,0,0,0-6-8.58,28.33,28.33,0,0,0-8.72-5.76,27,27,0,0,0-10.6-2.09h-33v54.9h33Z" transform="translate(-100.49 -52.65)"/><path class="cls-2" d="M1269.65,222a5.58,5.58,0,0,1-3.95-1.62,5.38,5.38,0,0,1-1.7-3.93V164.06q-1.89-2.58-7.1-9.61-6-8.1-14.1-19.11c-5.48-7.43-11.2-15.28-17-23.32l-16.5-22.8c-5-6.94-9.24-12.88-12.53-17.65-5.35-7.75-5.35-8.42-5.35-9.35a4.89,4.89,0,0,1,2.15-4.06,6.37,6.37,0,0,1,3.8-1.29,5.63,5.63,0,0,1,4.36,2.12l0.09,0.12L1274.27,159l0,0a6.07,6.07,0,0,1,1,3.15v54.2a5.38,5.38,0,0,1-1.7,3.93A5.58,5.58,0,0,1,1269.65,222Zm0.82-86.4a6.22,6.22,0,0,1-5-2.62l-47.91-66.68a4.83,4.83,0,0,1-1.2-3.25,5.43,5.43,0,0,1,2-4.28,6.08,6.08,0,0,1,3.91-1.48,5.33,5.33,0,0,1,4.16,2.12l0.06,0.08,43.72,60.71,41.31-60.73a5.32,5.32,0,0,1,4.75-2.57,5.71,5.71,0,0,1,3.9,1.55,5.29,5.29,0,0,1,1.85,4c0,0.9-.25,1.94-3.49,7.06-2.09,3.3-4.76,7.39-7.93,12.15s-6.67,10-10.41,15.51-7.31,10.77-10.82,15.83c-3.7,5.33-6.68,9.59-9.12,13s-4.16,5.83-5,7A5.33,5.33,0,0,1,1270.47,135.58Z" transform="translate(-100.49 -52.65)"/><path class="cls-1" d="M258.67,217.75a5.72,5.72,0,0,1-3.9-1.55,5.29,5.29,0,0,1-1.85-4c0-.92.16-1.61,3.83-7.11,2.31-3.46,5.39-7.92,9.14-13.25s8.14-11.54,13-18.41C283.94,166.3,289,159.2,294,152.31c5.35-7.41,10.53-14.64,15.39-21.48,5.12-7.2,9.83-13.77,14-19.52s7.87-10.83,10.79-14.89,4.88-6.79,5.78-8.07l0.07-.09a5.81,5.81,0,0,1,4.53-2.4,5.19,5.19,0,0,1,3.76,1.78A5.4,5.4,0,0,1,350,91.34c0.09,2.2-1.89,5-5.41,9.81l-1.28,1.75L263.15,215.48A5.19,5.19,0,0,1,258.67,217.75Zm-24.4,0c-3.6,0-5.75-2.15-5.75-5.75l0.2-153.8a5.55,5.55,0,0,1,11.1,0V194.7l100-138.84a5.63,5.63,0,0,1,4.34-2.41c3.41,0,5.44,2.15,5.44,5.75a5.19,5.19,0,0,1-.93,3.37L238.74,215.49A5.18,5.18,0,0,1,234.27,217.75Z" transform="translate(-100.49 -52.65)"/></svg>