<?xml version="1.0" standalone="no"?>
<!DOCTYPE svg PUBLIC "-//W3C//DTD SVG 20010904//EN"
 "http://www.w3.org/TR/2001/REC-SVG-20010904/DTD/svg10.dtd">
<svg version="1.0" xmlns="http://www.w3.org/2000/svg"
 width="192.000000pt" height="192.000000pt" viewBox="0 0 192.000000 192.000000"
 preserveAspectRatio="xMidYMid meet">
<metadata>
Created by potrace 1.11, written by Peter Selinger 2001-2013
</metadata>
<g transform="translate(0.000000,192.000000) scale(0.100000,-0.100000)"
fill="#000000" stroke="none">
<path d="M0 960 l0 -960 370 0 370 0 0 755 0 755 33 0 c52 0 156 -28 200 -55
103 -60 182 -180 212 -321 8 -38 15 -119 15 -180 0 -245 -85 -413 -277 -543
l-63 -42 0 -184 0 -185 530 0 530 0 0 960 0 960 -960 0 -960 0 0 -960z"/>
<path d="M860 935 c0 -249 4 -445 9 -445 17 0 138 138 159 181 42 87 55 164
49 299 -8 196 -58 319 -154 380 -26 17 -51 30 -55 30 -4 0 -8 -200 -8 -445z"/>
</g>
</svg>
